<?xml version="1.0" encoding="UTF-8" standalone="no"?>
<svg xmlns:dc="http://purl.org/dc/elements/1.1/" xmlns:cc="http://creativecommons.org/ns#"
  xmlns:rdf="http://www.w3.org/1999/02/22-rdf-syntax-ns#" xmlns:svg="http://www.w3.org/2000/svg"
  xmlns="http://www.w3.org/2000/svg" xmlns:sodipodi="http://sodipodi.sourceforge.net/DTD/sodipodi-0.dtd"
  xmlns:inkscape="http://www.inkscape.org/namespaces/inkscape" version="1.1" id="svg2" xml:space="preserve"
  width="566.92932" height="566.92932" viewBox="0 0 566.92932 566.92932"
  sodipodi:docname="Opleidings-SYMBOOL_Howest-Multimedia_en_Creative_Technologies_BLAUW_Quadri.ai">
  <metadata id="metadata8">
    <rdf:RDF>
      <cc:Work rdf:about="">
        <dc:format>image/svg+xml</dc:format>
        <dc:type rdf:resource="http://purl.org/dc/dcmitype/StillImage" />
      </cc:Work>
    </rdf:RDF>
  </metadata>
  <defs id="defs6">
    <clipPath clipPathUnits="userSpaceOnUse" id="clipPath18">
      <path d="M 0,425.197 H 425.197 V 0 H 0 Z" id="path16" />
    </clipPath>
  </defs>
  <sodipodi:namedview pagecolor="#ffffff" bordercolor="#666666" borderopacity="1" objecttolerance="10"
    gridtolerance="10" guidetolerance="10" inkscape:pageopacity="0" inkscape:pageshadow="2" inkscape:window-width="640"
    inkscape:window-height="480" id="namedview4" />
  <g id="g10" inkscape:groupmode="layer"
    inkscape:label="Opleidings-SYMBOOL_Howest-Multimedia_en_Creative_Technologies_BLAUW_Quadri"
    transform="matrix(1.3333333,0,0,-1.3333333,0,566.92933)">
    <g id="g12">
      <g id="g14" clip-path="url(#clipPath18)">
        <g id="g20" transform="translate(265.187,125.775)">
          <path
            d="M 0,0 -52.589,-29.026 -105.177,0 v -60.645 l 31.512,-18.193 c 13.044,-7.53 29.109,-7.53 42.152,0 L 0,-60.645 Z"
            style="fill:#062782;fill-opacity:1;fill-rule:nonzero;stroke:none" id="path22" />
        </g>
        <g id="g24" transform="translate(345.5815,313.775)">
          <path
            d="m 0,0 -111.907,64.604 c -13.043,7.531 -29.109,7.531 -42.153,0 L -265.966,0 c -13.038,-7.53 -21.076,-21.446 -21.076,-36.506 v -129.222 c 0,-15.053 8.038,-28.969 21.076,-36.5 l 19.482,-11.248 v 169.839 c 0,6.993 7.571,11.362 13.627,7.864 l 99.951,-56.306 99.798,56.306 c 6.054,3.498 13.626,-0.871 13.626,-7.864 V -213.476 L 0,-202.228 c 13.043,7.531 21.076,21.447 21.076,36.5 V -36.506 C 21.076,-21.446 13.043,-7.53 0,0"
            style="fill:#062782;fill-opacity:1;fill-rule:nonzero;stroke:none" id="path26" />
        </g>
      </g>
    </g>
  </g>
</svg>