<?xml version="1.0" standalone="no"?>
<!DOCTYPE svg PUBLIC "-//W3C//DTD SVG 20010904//EN"
 "http://www.w3.org/TR/2001/REC-SVG-20010904/DTD/svg10.dtd">
<svg version="1.0" xmlns="http://www.w3.org/2000/svg"
 width="700.000000pt" height="700.000000pt" viewBox="0 0 700.000000 700.000000"
 preserveAspectRatio="xMidYMid meet">
<metadata>
Created by potrace 1.14, written by Peter Selinger 2001-2017
</metadata>
<g transform="translate(0.000000,700.000000) scale(0.100000,-0.100000)"
fill="#000000" stroke="none">
<path d="M3488 6326 c-1 -2 -30 -6 -63 -9 -112 -11 -206 -49 -423 -175 -421
-244 -1038 -600 -1067 -616 -16 -9 -46 -26 -65 -37 -44 -27 -481 -279 -535
-309 -93 -52 -142 -94 -230 -195 -28 -33 -102 -175 -111 -215 -29 -127 -30
-164 -29 -1290 1 -1053 3 -1150 19 -1208 45 -166 142 -309 271 -399 36 -25
305 -183 312 -183 3 0 18 -9 34 -21 l29 -20 0 1409 c0 1524 -3 1448 53 1500
30 28 76 42 119 35 35 -5 36 -5 368 -193 91 -51 179 -101 195 -110 17 -9 208
-117 425 -240 217 -122 415 -234 440 -248 25 -13 70 -39 100 -56 30 -18 62
-35 70 -39 8 -4 35 -18 59 -32 l44 -25 121 69 c66 37 141 79 166 93 144 81
895 505 1170 661 208 118 226 126 272 121 47 -5 81 -26 112 -68 21 -27 21 -31
24 -1451 l2 -1424 158 91 c86 50 184 110 218 134 149 105 258 282 282 461 4
32 7 571 6 1198 -1 1139 -1 1140 -23 1213 -37 127 -101 232 -192 318 -71 66
-114 94 -414 264 -155 88 -375 216 -397 231 -15 11 -29 19 -32 19 -3 0 -146
82 -318 181 -334 194 -361 209 -423 244 -22 13 -118 68 -213 123 -263 153
-318 176 -447 188 -33 3 -65 7 -72 9 -6 2 -13 2 -15 1z"/>
<path d="M2634 1570 l0 -498 230 -133 c308 -178 397 -222 485 -241 144 -31
325 -12 445 48 28 14 168 93 312 176 l260 150 0 499 0 499 -81 -44 c-44 -24
-97 -53 -117 -64 -21 -12 -68 -38 -105 -58 -37 -20 -72 -40 -78 -44 -5 -4 -41
-24 -80 -45 -106 -57 -172 -94 -257 -141 -43 -24 -80 -44 -84 -44 -3 0 -17 -9
-31 -20 l-26 -20 -76 42 c-42 22 -89 49 -106 58 -16 9 -55 30 -85 47 -130 72
-175 96 -345 190 -99 55 -198 109 -221 121 l-40 20 0 -498z"/>
</g>
</svg>
